<svg xmlns="http://www.w3.org/2000/svg" width="212.547" height="24.296" viewBox="0 0 212.547 24.296">
  <g id="Group_17708" data-name="Group 17708" transform="translate(-425.5 -789.229)">
    <path id="path1962" d="M15.442,21.514c-.019-.029-.923-1.767-2.01-3.862s-1.993-3.825-2.013-3.846a18.383,18.383,0,0,0-1.607,1.531c-1.472,1.472-1.57,1.578-1.569,1.707,0,.076.061.632.134,1.237l.134,1.1-.636.639-.636.639L6.5,19.252l-.738-1.405-1.39-.725c-.764-.4-1.39-.734-1.39-.745s.28-.3.624-.644l.624-.624,1.225.149,1.225.149L8.267,13.82C9.5,12.584,9.841,12.226,9.8,12.2S8,11.237,5.872,10.115L2,8.073l.8-.8.8-.8L8.378,7.741l4.779,1.267,2.185-2.181C16.874,5.3,17.581,4.619,17.7,4.557a1.225,1.225,0,0,1,.453-.107A.973.973,0,0,1,19,4.782a.915.915,0,0,1,.285.72c0,.477.025.444-2.428,2.905l-2.212,2.218.955,3.69c.526,2.03,1.07,4.135,1.21,4.677l.255.987-.795.794C15.681,21.364,15.468,21.554,15.442,21.514Z" transform="translate(627.554 784.67) rotate(45)" fill="#f7951f"/>
    <line id="Line_182" data-name="Line 182" x1="190" transform="translate(425.5 801.5)" fill="none" stroke="#f7951f" stroke-width="2"/>
  </g>
</svg>
