<svg xmlns="http://www.w3.org/2000/svg" xmlns:xlink="http://www.w3.org/1999/xlink" width="46" height="30" viewBox="0 0 46 30">
  <defs>
    <clipPath id="clip-path">
      <path id="Path_13336" data-name="Path 13336" d="M0,0H46V30H0Z" transform="translate(761 520)" fill="none" stroke="#707070" stroke-width="1"/>
    </clipPath>
  </defs>
  <g id="Mask_Group_43" data-name="Mask Group 43" transform="translate(-761 -520)" clip-path="url(#clip-path)">
    <g id="iconfinder_auto_commercial_car_computer_combi_compact_compact_car_4047289_1_" data-name="iconfinder_auto_commercial_car_computer_combi_compact_compact_car_4047289(1)" transform="translate(761 524.063)">
      <path id="Path_352" data-name="Path 352" d="M271.047,581.453a.939.939,0,0,0,.938-.892c0-.016,0-.031,0-.047a.939.939,0,0,0-1.878,0c0,.016,0,.031,0,.047A.939.939,0,0,0,271.047,581.453Z" transform="translate(-262.338 -563.648)" fill="#084039"/>
      <path id="Path_353" data-name="Path 353" d="M716.047,579.575a.939.939,0,0,0-.939.939c0,.016,0,.031,0,.047a.939.939,0,0,0,1.876,0c0-.016,0-.031,0-.047A.939.939,0,0,0,716.047,579.575Z" transform="translate(-678.006 -563.648)" fill="#084039"/>
      <path id="Path_354" data-name="Path 354" d="M153.576,355.027h2.872a4.5,4.5,0,0,0,8.986,0H185.78a4.5,4.5,0,0,0,8.986,0h2.354a.914.914,0,0,0,.678-.31,1.109,1.109,0,0,0,.281-.747,1.121,1.121,0,0,0-.229-.686l-.488-.631c1.091-2.47.709-6.011.345-8.049a4.3,4.3,0,0,0-1.775-2.826,26.816,26.816,0,0,0-6.106-2.868c-6.191-2.175-17.135-.285-19.289,1.483-1.717,1.408-5.114,4.746-9.421,5.24a19.724,19.724,0,0,0-5.479,1.481,3.491,3.491,0,0,0-2.011,3.137l-.047,1.511-.747.549a1.44,1.44,0,0,0-.44.534,1.6,1.6,0,0,0-.159.7A1.418,1.418,0,0,0,153.576,355.027Zm39.538,0a2.85,2.85,0,0,1-5.683,0c-.006-.074-.009-.149-.009-.225a2.851,2.851,0,0,1,5.7,0C193.124,354.878,193.121,354.953,193.115,355.027Zm3.642-7.215a.494.494,0,0,1,.393.458,11.783,11.783,0,0,1-.193,2.574.492.492,0,0,1-.485.4h-.329a.492.492,0,0,1-.49-.538l.2-2.111a.492.492,0,0,1,.125-.284l.317-.35A.492.492,0,0,1,196.756,347.812Zm-9.661-4.581.331-1.543a1.6,1.6,0,0,1,1.394-1.252l.281-.03c.059.02.119.039.177.059a25.242,25.242,0,0,1,5.728,2.678,2.659,2.659,0,0,1,1.076,1.75q.024.135.046.268h-7.474a1.6,1.6,0,0,1-1.56-1.931Zm-6.819,5.512h-1.648a.56.56,0,0,1,0-1.121h1.648a.56.56,0,0,1,0,1.121Zm-9.361-6.514c.253-.216.471-.4.664-.561a11.705,11.705,0,0,1,4-1.341,36.845,36.845,0,0,1,6.595-.737l-.766,4.4a2.392,2.392,0,0,1-2.259,1.979l-11.442.464a2.392,2.392,0,0,1-1.743-.656A26.842,26.842,0,0,0,170.915,342.23Zm-9.974,9.722a2.854,2.854,0,0,1,2.851,2.851c0,.076,0,.151-.009.225a2.85,2.85,0,0,1-5.683,0c-.006-.074-.009-.149-.009-.225A2.854,2.854,0,0,1,160.941,351.951Zm-5.592-3.164c.449,0,.813.551.813,1.23s-.364,1.23-.813,1.23-.813-.551-.813-1.23S154.9,348.788,155.349,348.788Z" transform="translate(-152.232 -337.936)" fill="#084039"/>
    </g>
  </g>
</svg>
