<svg xmlns="http://www.w3.org/2000/svg" width="28.974" height="27.164" viewBox="0 0 28.974 27.164">
  <g id="excel" transform="translate(0 -15.989)">
    <path id="Path_13314" data-name="Path 13314" d="M269.582,99.931H256.905a.906.906,0,0,1-.905-.905V80.916a.906.906,0,0,1,.905-.905h12.676a.906.906,0,0,1,.905.905V99.025A.906.906,0,0,1,269.582,99.931Z" transform="translate(-241.513 -60.399)" fill="#eceff1"/>
    <g id="Group_17660" data-name="Group 17660" transform="translate(14.487 23.234)">
      <path id="Path_13315" data-name="Path 13315" d="M260.527,145.822h-3.622a.905.905,0,1,1,0-1.811h3.622a.905.905,0,1,1,0,1.811Z" transform="translate(-256 -144.011)" fill="#388e3c"/>
      <path id="Path_13316" data-name="Path 13316" d="M260.527,209.822h-3.622a.905.905,0,1,1,0-1.811h3.622a.905.905,0,1,1,0,1.811Z" transform="translate(-256 -204.389)" fill="#388e3c"/>
      <path id="Path_13317" data-name="Path 13317" d="M260.527,273.822h-3.622a.905.905,0,0,1,0-1.811h3.622a.905.905,0,0,1,0,1.811Z" transform="translate(-256 -264.767)" fill="#388e3c"/>
      <path id="Path_13318" data-name="Path 13318" d="M260.527,337.822h-3.622a.905.905,0,1,1,0-1.811h3.622a.905.905,0,1,1,0,1.811Z" transform="translate(-256 -325.146)" fill="#388e3c"/>
      <path id="Path_13319" data-name="Path 13319" d="M386.716,145.822h-1.811a.905.905,0,1,1,0-1.811h1.811a.905.905,0,1,1,0,1.811Z" transform="translate(-376.756 -144.011)" fill="#388e3c"/>
      <path id="Path_13320" data-name="Path 13320" d="M386.716,209.822h-1.811a.905.905,0,1,1,0-1.811h1.811a.905.905,0,1,1,0,1.811Z" transform="translate(-376.756 -204.389)" fill="#388e3c"/>
      <path id="Path_13321" data-name="Path 13321" d="M386.716,273.822h-1.811a.905.905,0,0,1,0-1.811h1.811a.905.905,0,1,1,0,1.811Z" transform="translate(-376.756 -264.767)" fill="#388e3c"/>
      <path id="Path_13322" data-name="Path 13322" d="M386.716,337.822h-1.811a.905.905,0,1,1,0-1.811h1.811a.905.905,0,1,1,0,1.811Z" transform="translate(-376.756 -325.146)" fill="#388e3c"/>
    </g>
    <path id="Path_13323" data-name="Path 13323" d="M15.97,16.2a.89.89,0,0,0-.744-.192L.739,18.723A.9.9,0,0,0,0,19.612v19.92a.9.9,0,0,0,.739.889l14.487,2.716a.852.852,0,0,0,.167.016.905.905,0,0,0,.905-.905V16.9A.9.9,0,0,0,15.97,16.2Z" transform="translate(0 0)" fill="#2e7d32"/>
    <path id="Path_13324" data-name="Path 13324" d="M87.909,168.484l-2.863-3.272,2.9-3.723a.906.906,0,0,0-1.429-1.114l-2.682,3.448-2.26-2.582a.9.9,0,1,0-1.362,1.192l2.49,2.847-2.524,3.245a.906.906,0,0,0,1.431,1.112l2.309-2.97,2.633,3.008a.9.9,0,1,0,1.362-1.19Z" transform="translate(-75.457 -135.886)" fill="#fafafa"/>
  </g>
</svg>
