<svg xmlns="http://www.w3.org/2000/svg" width="7.097" height="12.504" viewBox="0 0 7.097 12.504">
  <path id="facebook" d="M4.882,12.5h-2a.609.609,0,0,1-.609-.609V7.376H1.109A.609.609,0,0,1,.5,6.767V4.835a.609.609,0,0,1,.609-.609H2.274V3.26A3.3,3.3,0,0,1,3.146.9,3.141,3.141,0,0,1,5.462,0H6.988A.609.609,0,0,1,7.6.608V2.4a.609.609,0,0,1-.609.609H5.959c-.314,0-.394.063-.41.082s-.062.123-.062.371v.763H6.91a.616.616,0,0,1,.3.076.609.609,0,0,1,.312.533V6.769a.609.609,0,0,1-.609.609H5.487v4.514a.609.609,0,0,1-.609.609Z" transform="translate(-0.5 0.003)" fill="#f7941f"/>
</svg>
