<svg id="google-play-badge" xmlns="http://www.w3.org/2000/svg" xmlns:xlink="http://www.w3.org/1999/xlink" width="188.518" height="55.857" viewBox="0 0 188.518 55.857">
  <defs>
    <linearGradient id="linear-gradient" x1="0.908" y1="1.032" x2="-0.383" y2="0.36" gradientUnits="objectBoundingBox">
      <stop offset="0" stop-color="#00a0ff"/>
      <stop offset="0.007" stop-color="#00a1ff"/>
      <stop offset="0.26" stop-color="#00beff"/>
      <stop offset="0.512" stop-color="#00d2ff"/>
      <stop offset="0.76" stop-color="#00dfff"/>
      <stop offset="1" stop-color="#00e3ff"/>
    </linearGradient>
    <linearGradient id="linear-gradient-2" x1="1.077" y1="0.729" x2="-1.307" y2="0.729" gradientUnits="objectBoundingBox">
      <stop offset="0" stop-color="#ffe000"/>
      <stop offset="0.409" stop-color="#ffbd00"/>
      <stop offset="0.775" stop-color="orange"/>
      <stop offset="1" stop-color="#ff9c00"/>
    </linearGradient>
    <linearGradient id="linear-gradient-3" x1="0.864" y1="-0.023" x2="-0.499" y2="-1.789" gradientUnits="objectBoundingBox">
      <stop offset="0" stop-color="#ff3a44"/>
      <stop offset="1" stop-color="#c31162"/>
    </linearGradient>
    <linearGradient id="linear-gradient-4" x1="-0.186" y1="2.701" x2="0.423" y2="1.909" gradientUnits="objectBoundingBox">
      <stop offset="0" stop-color="#32a071"/>
      <stop offset="0.069" stop-color="#2da771"/>
      <stop offset="0.476" stop-color="#15cf74"/>
      <stop offset="0.801" stop-color="#06e775"/>
      <stop offset="1" stop-color="#00f076"/>
    </linearGradient>
  </defs>
  <path id="Path_910" data-name="Path 910" d="M181.535,55.857H6.982A6.914,6.914,0,0,1,0,48.875V6.982A6.914,6.914,0,0,1,6.982,0H181.535a6.914,6.914,0,0,1,6.982,6.982V48.875a6.914,6.914,0,0,1-6.982,6.982Z"/>
  <path id="Path_911" data-name="Path 911" d="M181.535,1.117A5.9,5.9,0,0,1,187.4,6.982V48.875a5.9,5.9,0,0,1-5.865,5.865H6.982a5.9,5.9,0,0,1-5.865-5.865V6.982A5.9,5.9,0,0,1,6.982,1.117H181.535m0-1.117H6.982A7,7,0,0,0,0,6.982V48.875a6.914,6.914,0,0,0,6.982,6.982H181.535a6.914,6.914,0,0,0,6.982-6.982V6.982A7,7,0,0,0,181.535,0Z" fill="#a6a6a6"/>
  <path id="Path_912" data-name="Path 912" d="M49.779,11.508A3.8,3.8,0,0,1,48.8,14.3a4.344,4.344,0,1,1-3.071-7.4,3.718,3.718,0,0,1,1.676.419,3.041,3.041,0,0,1,1.257.977l-.7.7a2.6,2.6,0,0,0-2.234-.977A2.778,2.778,0,0,0,43.494,9a2.877,2.877,0,0,0-.977,2.374,2.877,2.877,0,0,0,.977,2.374,3.6,3.6,0,0,0,2.234.977,3.063,3.063,0,0,0,2.374-.977,2.313,2.313,0,0,0,.7-1.676H45.729V10.95h4.05v.559ZM56.2,8.017H52.43V10.67h3.491v.977H52.432V14.3H56.2v1.117H51.315V7.04H56.2Zm4.608,7.4H59.693v-7.4H57.319V7.04h5.865v.977H60.81Zm6.424,0V7.04h1.117v8.379Zm5.865,0H71.982v-7.4H69.608V7.04h5.725v.977H72.959v7.4ZM86.365,14.3a4.344,4.344,0,1,1,1.258-3.072A4.106,4.106,0,0,1,86.365,14.3Zm-5.306-.7a3.3,3.3,0,0,0,2.234.977,2.778,2.778,0,0,0,2.234-.977,3.369,3.369,0,0,0,.977-2.374,2.877,2.877,0,0,0-.977-2.374,3.3,3.3,0,0,0-2.234-.977,2.778,2.778,0,0,0-2.234.977,3.369,3.369,0,0,0-.977,2.374,2.877,2.877,0,0,0,.976,2.374Zm8.1,1.815V7.04h1.257l4.05,6.563V7.04h1.117v8.379H94.464L90.135,8.576v6.842h-.977Z" transform="translate(16.412 2.735)" fill="#fff" stroke="#fff" stroke-miterlimit="10" stroke-width="0.2"/>
  <path id="Path_913" data-name="Path 913" d="M78.8,23.663a5.875,5.875,0,0,0-6,6,5.96,5.96,0,0,0,6,6,5.875,5.875,0,0,0,6-6,5.793,5.793,0,0,0-6-6Zm0,9.5a3.466,3.466,0,0,1-3.351-3.631A3.466,3.466,0,0,1,78.8,25.9a3.383,3.383,0,0,1,3.351,3.631A3.466,3.466,0,0,1,78.8,33.159Zm-12.987-9.5a5.875,5.875,0,0,0-6,6,5.96,5.96,0,0,0,6,6,5.875,5.875,0,0,0,6-6,5.793,5.793,0,0,0-6-6Zm0,9.5a3.466,3.466,0,0,1-3.351-3.631A3.466,3.466,0,0,1,65.817,25.9a3.383,3.383,0,0,1,3.351,3.631,3.466,3.466,0,0,1-3.351,3.628Zm-15.5-7.68V28h6a5.28,5.28,0,0,1-1.4,3.212A6.181,6.181,0,0,1,50.3,33.024a6.5,6.5,0,0,1-6.563-6.7,6.587,6.587,0,0,1,6.563-6.7,6.924,6.924,0,0,1,4.608,1.815l1.815-1.815A8.948,8.948,0,0,0,50.456,17.1,9.42,9.42,0,0,0,41.1,26.316a9.42,9.42,0,0,0,9.356,9.216A8.036,8.036,0,0,0,56.88,32.88a8.406,8.406,0,0,0,2.234-5.865,5.236,5.236,0,0,0-.14-1.536Zm63.4,1.955a5.426,5.426,0,0,0-5.027-3.77c-3.072,0-5.586,2.374-5.586,6a5.844,5.844,0,0,0,5.865,6,5.728,5.728,0,0,0,4.887-2.653l-1.955-1.4a3.4,3.4,0,0,1-2.932,1.676,3.03,3.03,0,0,1-2.932-1.815l7.96-3.351-.279-.7Zm-8.1,1.955a3.392,3.392,0,0,1,3.072-3.491,2.47,2.47,0,0,1,2.234,1.257ZM99.05,35.118h2.65V17.659H99.052Zm-4.188-10.2a4.6,4.6,0,0,0-3.212-1.4,6,6,0,0,0-5.725,6,5.782,5.782,0,0,0,5.725,5.865A4.009,4.009,0,0,0,94.723,34h.14v.838c0,2.234-1.257,3.491-3.212,3.491a3.1,3.1,0,0,1-2.932-2.094l-2.234.976A5.761,5.761,0,0,0,91.79,40.7c3.072,0,5.586-1.815,5.586-6.144V23.942H94.862v.977ZM91.79,33.159a3.466,3.466,0,0,1-3.351-3.631A3.466,3.466,0,0,1,91.79,25.9,3.36,3.36,0,0,1,95,29.528a3.36,3.36,0,0,1-3.21,3.631Zm34.073-15.5h-6.284V35.114h2.653V28.551h3.631a5.453,5.453,0,1,0,0-10.892Zm.14,8.379h-3.77v-6H126a3.067,3.067,0,0,1,3.072,2.932A3.2,3.2,0,0,1,126,26.037Zm16.059-2.514a4.694,4.694,0,0,0-4.608,2.653l2.374.977A2.467,2.467,0,0,1,142.2,25.9a2.624,2.624,0,0,1,2.793,2.234v.14a5.539,5.539,0,0,0-2.653-.7c-2.514,0-5.027,1.4-5.027,3.91a4.091,4.091,0,0,0,4.329,3.91,3.93,3.93,0,0,0,3.351-1.676h.14v1.4h2.514v-6.7a5.285,5.285,0,0,0-5.586-4.887Zm-.279,9.635c-.838,0-2.1-.419-2.1-1.536,0-1.4,1.536-1.815,2.793-1.815a5.4,5.4,0,0,1,2.374.559,3.252,3.252,0,0,1-3.073,2.792Zm14.662-9.216-2.932,7.541h-.14L150.3,23.942h-2.793l4.608,10.613-2.653,5.865h2.653l7.122-16.478Zm-23.46,11.171h2.653V17.659h-2.653Z" transform="translate(16.293 6.779)" fill="#fff"/>
  <g id="Group_249" data-name="Group 249" transform="translate(13.964 9.98)">
    <path id="Path_914" data-name="Path 914" d="M10.559,7.5A2.73,2.73,0,0,0,10,9.455V40.316a2.762,2.762,0,0,0,.7,1.955l.14.14L28.153,25.095v-.279Z" transform="translate(-10 -7.007)" fill="url(#linear-gradient)"/>
    <path id="Path_915" data-name="Path 915" d="M28.625,27.67,22.9,21.944v-.419L28.625,15.8l.14.14,6.842,3.91c1.955,1.117,1.955,2.932,0,4.05Z" transform="translate(-4.886 -3.717)" fill="url(#linear-gradient-2)"/>
    <path id="Path_916" data-name="Path 916" d="M33.72,25.865,27.855,20,10.4,37.455c.7.7,1.676.7,2.932.14L33.72,25.865" transform="translate(-9.841 -2.052)" fill="url(#linear-gradient-3)"/>
    <path id="Path_917" data-name="Path 917" d="M33.72,19.221,13.332,7.63c-1.257-.7-2.234-.559-2.932.14L27.855,25.086Z" transform="translate(-9.841 -7.138)" fill="url(#linear-gradient-4)"/>
    <path id="Path_918" data-name="Path 918" d="M33.581,24.1,13.332,35.551a2.284,2.284,0,0,1-2.793,0l-.14.14.14.14a2.284,2.284,0,0,0,2.793,0Z" transform="translate(-9.841 -0.427)" opacity="0.2"/>
    <path id="Path_919" data-name="Path 919" d="M10.559,37.176A2.73,2.73,0,0,1,10,35.221v.14a2.762,2.762,0,0,0,.7,1.955v-.14h-.14ZM40.721,21.815l-6.982,3.91.14.14,6.842-3.91A2.321,2.321,0,0,0,42.118,20C42.118,20.7,41.559,21.257,40.721,21.815Z" transform="translate(-10 -2.052)" opacity="0.12"/>
    <path id="Path_920" data-name="Path 920" d="M13.491,7.78l27.23,15.5c.838.559,1.4,1.117,1.4,1.815a2.321,2.321,0,0,0-1.4-1.955L13.491,7.64C11.536,6.523,10,7.361,10,9.6v.14C10,7.64,11.536,6.662,13.491,7.78Z" transform="translate(-10 -7.147)" fill="#fff" opacity="0.25"/>
  </g>
</svg>
