<svg id="Group_17029" data-name="Group 17029" xmlns="http://www.w3.org/2000/svg" width="12.711" height="12.71" viewBox="0 0 12.711 12.71">
  <g id="iconfinder_instagram_2639840" transform="translate(0 0)">
    <path id="Path_351" data-name="Path 351" d="M12,3h-5.3A3.712,3.712,0,0,0,3,6.708V12A3.712,3.712,0,0,0,6.708,15.71H12A3.712,3.712,0,0,0,15.711,12v-5.3A3.712,3.712,0,0,0,12,3ZM9.355,12.533a3.178,3.178,0,1,1,3.178-3.178A3.181,3.181,0,0,1,9.355,12.533Zm3.707-6.355a.53.53,0,1,1,.53-.53A.53.53,0,0,1,13.063,6.178Z" transform="translate(-3 -3)" fill="#f7941f"/>
  </g>
  <ellipse id="Ellipse_1" data-name="Ellipse 1" cx="1.887" cy="1.887" rx="1.887" ry="1.887" transform="translate(4.368 4.658)" fill="#f7941f"/>
</svg>
