<svg xmlns="http://www.w3.org/2000/svg" width="14.394" height="13.758" viewBox="0 0 14.394 13.758">
  <path id="iconfinder_LinkedIn_alt_367593" d="M46.183,59.753h3.085v9.283H46.183Zm1.563-4.475a1.608,1.608,0,1,0-.04,3.207h.02a1.609,1.609,0,1,0,.021-3.207Zm9.1,4.257a3.063,3.063,0,0,0-2.78,1.532V59.753H50.975c.041.871,0,9.283,0,9.283h3.086V63.851a2.124,2.124,0,0,1,.1-.753,1.69,1.69,0,0,1,1.583-1.128c1.117,0,1.564.852,1.564,2.1v4.967h3.085V63.713C60.394,60.861,58.872,59.535,56.841,59.535Z" transform="translate(-46 -55.278)" fill="#f7941f"/>
</svg>
