<svg xmlns="http://www.w3.org/2000/svg" width="14.384" height="14.384" viewBox="0 0 14.384 14.384">
  <g id="logout" transform="translate(0 -0.004)">
    <path id="Path_3" data-name="Path 3" d="M8.99,7.795a.6.6,0,0,0-.6.6v2.4a.6.6,0,0,1-.6.6h-1.8V2.4a1.208,1.208,0,0,0-.816-1.139L5,1.2H7.791a.6.6,0,0,1,.6.6V3.6a.6.6,0,1,0,1.2,0V1.8A1.8,1.8,0,0,0,7.791,0H1.348a.471.471,0,0,0-.064.013C1.255.015,1.228,0,1.2,0A1.2,1.2,0,0,0,0,1.2V11.99A1.208,1.208,0,0,0,.816,13.13l3.607,1.2a1.241,1.241,0,0,0,.372.056,1.2,1.2,0,0,0,1.2-1.2v-.6h1.8a1.8,1.8,0,0,0,1.8-1.8v-2.4a.6.6,0,0,0-.6-.6Zm0,0" fill="#fff"/>
    <path id="Path_4" data-name="Path 4" d="M283.749,109.239l-2.4-2.4a.6.6,0,0,0-1.023.424v1.8h-2.4a.6.6,0,1,0,0,1.2h2.4v1.8a.6.6,0,0,0,1.023.424l2.4-2.4a.6.6,0,0,0,0-.847Zm0,0" transform="translate(-269.541 -103.665)" fill="#fff"/>
  </g>
</svg>
