<svg xmlns="http://www.w3.org/2000/svg" width="17.313" height="17.314" viewBox="0 0 17.313 17.314">
  <g id="phone-ringing" transform="translate(-0.002 0)">
    <path id="Path_1009" data-name="Path 1009" d="M12.441,17.31a4.823,4.823,0,0,1-1.655-.3A17.644,17.644,0,0,1,4.38,12.931,17.643,17.643,0,0,1,.3,6.524,4.788,4.788,0,0,1,.052,4.171,4.91,4.91,0,0,1,2.575.577,4.82,4.82,0,0,1,4.883,0a.541.541,0,0,1,.529.428L6.261,4.39a.541.541,0,0,1-.146.5L4.664,6.336a14.239,14.239,0,0,0,6.31,6.31L12.425,11.2a.541.541,0,0,1,.5-.146l3.962.849a.541.541,0,0,1,.428.529,4.82,4.82,0,0,1-.577,2.308,4.91,4.91,0,0,1-3.594,2.523,4.811,4.811,0,0,1-.7.051Z" fill="#f89c29"/>
    <path id="Path_1010" data-name="Path 1010" d="M248.675,9.2a.541.541,0,0,1-.541-.541,7.582,7.582,0,0,0-7.573-7.573.541.541,0,0,1,0-1.082,8.655,8.655,0,0,1,8.655,8.655A.541.541,0,0,1,248.675,9.2Z" transform="translate(-231.905)" fill="#f89c29"/>
    <path id="Path_1011" data-name="Path 1011" d="M246.511,71.032a.541.541,0,0,1-.541-.541,5.415,5.415,0,0,0-5.409-5.409.541.541,0,1,1,0-1.082,6.5,6.5,0,0,1,6.491,6.491.541.541,0,0,1-.541.541Z" transform="translate(-231.905 -61.836)" fill="#f89c29"/>
    <path id="Path_1012" data-name="Path 1012" d="M244.347,132.868a.541.541,0,0,1-.541-.541,3.249,3.249,0,0,0-3.246-3.246.541.541,0,1,1,0-1.082,4.332,4.332,0,0,1,4.327,4.327.541.541,0,0,1-.54.542Z" transform="translate(-231.905 -123.673)" fill="#f89c29"/>
  </g>
</svg>
