<svg id="Group_250" data-name="Group 250" xmlns="http://www.w3.org/2000/svg" xmlns:xlink="http://www.w3.org/1999/xlink" width="187.834" height="55.664" viewBox="0 0 187.834 55.664">
  <defs>
    <linearGradient id="linear-gradient" x1="-0.474" y1="0.887" x2="-0.474" y2="1.082" gradientUnits="objectBoundingBox">
      <stop offset="0" stop-color="#1a1a1a" stop-opacity="0.102"/>
      <stop offset="0.123" stop-color="#212121" stop-opacity="0.153"/>
      <stop offset="0.308" stop-color="#353535" stop-opacity="0.227"/>
      <stop offset="0.532" stop-color="#575757" stop-opacity="0.318"/>
      <stop offset="0.783" stop-color="#858585" stop-opacity="0.42"/>
      <stop offset="1" stop-color="#b3b3b3" stop-opacity="0.51"/>
    </linearGradient>
  </defs>
  <g id="download-on-the-app-store-apple-2">
    <path id="Path_921" data-name="Path 921" d="M181.249,55.662H6.584A6.581,6.581,0,0,1,0,49.08V6.582A6.581,6.581,0,0,1,6.585,0H181.249a6.581,6.581,0,0,1,6.584,6.582v42.5a6.581,6.581,0,0,1-6.585,6.582Z" fill="#a6a6a6"/>
    <path id="Path_922" data-name="Path 922" d="M202.147,64.252a5.311,5.311,0,0,1-5.321,5.32H22.16a5.337,5.337,0,0,1-5.351-5.32v-42.5A5.362,5.362,0,0,1,22.16,16.4H196.826a5.343,5.343,0,0,1,5.351,5.35Z" transform="translate(-15.546 -15.172)"/>
    <path id="Path_923" data-name="Path 923" d="M260.724,134.106a8.041,8.041,0,0,1,3.848-6.762,8.242,8.242,0,0,0-6.524-3.516c-2.736-.3-5.381,1.653-6.794,1.653s-3.577-1.623-5.892-1.563a8.731,8.731,0,0,0-7.3,4.448c-3.157,5.47-.812,13.495,2.225,17.883,1.5,2.164,3.277,4.568,5.592,4.478,2.255-.09,3.1-1.443,5.832-1.443,2.706,0,3.487,1.443,5.862,1.383,2.435-.03,3.968-2.164,5.411-4.358a17.716,17.716,0,0,0,2.465-5.049A7.82,7.82,0,0,1,260.724,134.106Zm-4.449-13.194a7.937,7.937,0,0,0,1.8-5.68,8.173,8.173,0,0,0-5.231,2.7,7.549,7.549,0,0,0-1.864,5.47,6.664,6.664,0,0,0,5.3-2.49Z" transform="translate(-218.787 -106.576)" fill="#fff"/>
    <path id="Path_924" data-name="Path 924" d="M1260.99,0h-93.56l36.647,55.662h56.909a6.581,6.581,0,0,0,6.584-6.582V6.582A6.581,6.581,0,0,0,1260.989,0Z" transform="translate(-1079.737)" fill="url(#linear-gradient)"/>
    <path id="Path_925" data-name="Path 925" d="M802.057,155.977H798.9l-1.744-5.44h-6.013l-1.653,5.44h-3.067l5.953-18.514h3.7Zm-5.411-7.724-1.563-4.839c-.181-.481-.481-1.653-.932-3.486h-.06c-.18.781-.481,1.954-.872,3.486l-1.533,4.839Zm20.713.872a7.551,7.551,0,0,1-1.864,5.38,5.435,5.435,0,0,1-4.119,1.773,4.136,4.136,0,0,1-3.818-1.893v7h-2.946v-14.4c0-1.413-.03-2.885-.12-4.388h2.616l.18,2.1h.06a5.273,5.273,0,0,1,8.448-.541,7.593,7.593,0,0,1,1.563,4.968Zm-3.006.12a5.633,5.633,0,0,0-.872-3.216,3.048,3.048,0,0,0-2.585-1.322,3.1,3.1,0,0,0-1.984.721,3.281,3.281,0,0,0-1.173,1.924,4.7,4.7,0,0,0-.15.9v2.224a3.56,3.56,0,0,0,.9,2.464,3,3,0,0,0,2.315.992,3.039,3.039,0,0,0,2.615-1.292,5.549,5.549,0,0,0,.934-3.4Zm18.4-.12a7.551,7.551,0,0,1-1.864,5.38,5.435,5.435,0,0,1-4.119,1.773,4.136,4.136,0,0,1-3.818-1.893v7h-2.976v-14.4c0-1.413-.03-2.885-.12-4.388h2.615l.181,2.1h.06a5.273,5.273,0,0,1,8.448-.541,7.608,7.608,0,0,1,1.591,4.968Zm-3.036.12a5.632,5.632,0,0,0-.872-3.216,3.048,3.048,0,0,0-2.585-1.322,3.1,3.1,0,0,0-1.984.721,3.283,3.283,0,0,0-1.172,1.924,3.989,3.989,0,0,0-.15.9v2.224a3.561,3.561,0,0,0,.9,2.464,3,3,0,0,0,2.315.992,3.039,3.039,0,0,0,2.616-1.292,5.55,5.55,0,0,0,.932-3.4Zm20.2,1.533a4.918,4.918,0,0,1-1.653,3.847,7.286,7.286,0,0,1-5.051,1.623,9.113,9.113,0,0,1-4.81-1.142l.692-2.464a8.15,8.15,0,0,0,4.3,1.142,4.045,4.045,0,0,0,2.616-.751,2.439,2.439,0,0,0,.932-2.014,2.585,2.585,0,0,0-.782-1.893,7.242,7.242,0,0,0-2.555-1.443q-4.87-1.8-4.87-5.32a4.633,4.633,0,0,1,1.714-3.727,6.851,6.851,0,0,1,4.539-1.443,9.2,9.2,0,0,1,4.209.872l-.752,2.4a7.28,7.28,0,0,0-3.547-.842,3.672,3.672,0,0,0-2.465.781,2.256,2.256,0,0,0-.751,1.683,2.207,2.207,0,0,0,.842,1.8,9.6,9.6,0,0,0,2.706,1.443,8.89,8.89,0,0,1,3.517,2.254,4.354,4.354,0,0,1,1.169,3.193Zm9.83-5.921H856.47v6.492c0,1.653.571,2.464,1.744,2.464a4.214,4.214,0,0,0,1.323-.15l.09,2.254a6.876,6.876,0,0,1-2.315.331,3.512,3.512,0,0,1-2.736-1.082,5.281,5.281,0,0,1-.992-3.607v-6.732H851.63V142.6h1.954v-2.434l2.916-.872v3.336h3.277Zm14.731,4.328a7.338,7.338,0,0,1-1.774,5.049,6.307,6.307,0,0,1-4.9,2.044,6.035,6.035,0,0,1-4.69-1.954,7.062,7.062,0,0,1-1.744-4.929,7.242,7.242,0,0,1,1.8-5.079,6.236,6.236,0,0,1,4.84-1.984,6.1,6.1,0,0,1,4.72,1.954,6.936,6.936,0,0,1,1.749,4.9Zm-3.067.06a6.138,6.138,0,0,0-.781-3.156,2.958,2.958,0,0,0-2.676-1.593,3.016,3.016,0,0,0-2.736,1.593,6.005,6.005,0,0,0-.781,3.216,6.138,6.138,0,0,0,.781,3.156,3.055,3.055,0,0,0,5.381-.03A6.046,6.046,0,0,0,871.411,149.245Zm12.717-4.027a4.9,4.9,0,0,0-.932-.09,2.747,2.747,0,0,0-2.4,1.172,4.513,4.513,0,0,0-.752,2.645v7h-2.976V146.81c0-1.413-.03-2.8-.09-4.208h2.585l.12,2.555h.09a4.468,4.468,0,0,1,1.473-2.1,3.721,3.721,0,0,1,2.135-.721,5.867,5.867,0,0,1,.752.06Zm13.288,3.456a6.868,6.868,0,0,1-.12,1.353h-8.9a3.824,3.824,0,0,0,1.293,3.036,4.355,4.355,0,0,0,2.916.932,9.88,9.88,0,0,0,3.608-.631l.451,2.044a11.354,11.354,0,0,1-4.48.811,6.393,6.393,0,0,1-4.87-1.833,6.8,6.8,0,0,1-1.774-4.9,7.54,7.54,0,0,1,1.653-5.019,5.615,5.615,0,0,1,4.66-2.134,4.953,4.953,0,0,1,4.359,2.134,7.027,7.027,0,0,1,1.2,4.206Zm-2.826-.781a4.042,4.042,0,0,0-.571-2.284,2.55,2.55,0,0,0-2.375-1.232,2.829,2.829,0,0,0-2.375,1.2,4.5,4.5,0,0,0-.872,2.314h6.193ZM790.3,130.911a14.9,14.9,0,0,1-2.135-.12v-8.956a17.842,17.842,0,0,1,2.525-.18c3.4,0,4.96,1.683,4.96,4.418C795.654,129.2,793.79,130.911,790.3,130.911Zm.481-8.115a6.639,6.639,0,0,0-1.172.09v6.792a7.961,7.961,0,0,0,.992.03c2.225,0,3.487-1.262,3.487-3.637a2.959,2.959,0,0,0-3.3-3.271Zm9.74,8.175a3.12,3.12,0,0,1-3.157-3.366,3.189,3.189,0,0,1,3.277-3.456,3.089,3.089,0,0,1,3.156,3.366,3.222,3.222,0,0,1-3.273,3.456Zm.06-5.771c-1.052,0-1.744.992-1.744,2.374,0,1.352.692,2.344,1.714,2.344s1.714-1.052,1.714-2.374c.035-1.352-.659-2.344-1.681-2.344Zm14.16-.932L812.7,130.82h-1.353l-.842-2.855c-.21-.691-.391-1.413-.541-2.134h-.03a13.081,13.081,0,0,1-.541,2.134l-.9,2.855h-1.353l-1.924-6.552h1.5l.752,3.126c.18.751.331,1.443.451,2.1h.03c.12-.541.271-1.232.541-2.1l.932-3.126h1.2l.9,3.066q.316,1.127.541,2.164h.03a17.458,17.458,0,0,1,.451-2.164l.812-3.066Zm7.546,6.552h-1.443v-3.757c0-1.172-.451-1.743-1.323-1.743a1.522,1.522,0,0,0-1.473,1.593v3.907h-1.473v-4.689c0-.571,0-1.2-.06-1.863h1.293l.06,1.022h.03a2.387,2.387,0,0,1,2.074-1.142c1.383,0,2.285,1.052,2.285,2.765Zm4.028,0h-1.473v-9.588h1.473Zm5.321.15a3.12,3.12,0,0,1-3.156-3.366,3.189,3.189,0,0,1,3.277-3.456,3.089,3.089,0,0,1,3.157,3.366,3.222,3.222,0,0,1-3.275,3.457Zm.06-5.771c-1.052,0-1.744.992-1.744,2.374,0,1.352.692,2.344,1.714,2.344s1.714-1.052,1.714-2.374c0-1.351-.659-2.343-1.68-2.343Zm8.958,5.62-.12-.751h-.03a2.251,2.251,0,0,1-1.924.9,1.9,1.9,0,0,1-2.014-1.924c0-1.623,1.413-2.464,3.848-2.464v-.12c0-.872-.451-1.292-1.353-1.292a3.008,3.008,0,0,0-1.714.481l-.3-.962a4.054,4.054,0,0,1,2.255-.571c1.714,0,2.585.9,2.585,2.7v2.4a10.638,10.638,0,0,0,.09,1.563l-1.323.03Zm-.21-3.276c-1.623,0-2.435.391-2.435,1.322a.924.924,0,0,0,.992,1.022,1.4,1.4,0,0,0,1.443-1.322Zm8.508,3.276-.06-1.052h-.03a2.214,2.214,0,0,1-2.1,1.2c-1.593,0-2.766-1.383-2.766-3.336,0-2.044,1.2-3.486,2.886-3.486a2.006,2.006,0,0,1,1.864.9h.03v-3.817h1.473v7.814c0,.631.03,1.232.06,1.773Zm-.21-3.847a1.585,1.585,0,0,0-1.533-1.713c-1.082,0-1.744.962-1.744,2.314,0,1.322.691,2.224,1.714,2.224a1.635,1.635,0,0,0,1.563-1.743Zm10.733,4a3.12,3.12,0,0,1-3.157-3.366,3.189,3.189,0,0,1,3.277-3.456,3.089,3.089,0,0,1,3.157,3.366,3.222,3.222,0,0,1-3.275,3.455Zm.06-5.771c-1.052,0-1.714.992-1.714,2.374,0,1.352.691,2.344,1.714,2.344s1.714-1.052,1.714-2.374c-.028-1.353-.689-2.345-1.712-2.345Zm11.063,5.62h-1.473v-3.757c0-1.172-.451-1.743-1.323-1.743a1.5,1.5,0,0,0-1.443,1.593v3.907h-1.473v-4.689c0-.571,0-1.2-.06-1.863h1.293l.06,1.022h.03a2.387,2.387,0,0,1,2.074-1.142c1.383,0,2.285,1.052,2.285,2.765v3.907Zm9.8-5.47H878.8v3.186c0,.811.271,1.2.842,1.2a3.833,3.833,0,0,0,.661-.06l.03,1.112a3,3,0,0,1-1.142.15c-1.142,0-1.834-.631-1.834-2.284v-3.306H876.4v-1.082h.962v-1.2l1.443-.421v1.623h1.6Zm7.726,5.47h-1.443v-3.727c0-1.172-.451-1.773-1.323-1.773a1.444,1.444,0,0,0-1.473,1.563v3.967h-1.443v-9.618h1.443v3.937h.03a2.2,2.2,0,0,1,1.984-1.082c1.383,0,2.225,1.082,2.225,2.8Zm7.906-2.915h-4.389a1.9,1.9,0,0,0,2.074,1.954,5.483,5.483,0,0,0,1.774-.3l.241,1.022a5.5,5.5,0,0,1-2.2.391,3.055,3.055,0,0,1-3.277-3.306c0-2.014,1.233-3.516,3.1-3.516,1.683,0,2.736,1.232,2.736,3.126a2.465,2.465,0,0,1-.06.629Zm-1.323-1.052c0-1.022-.511-1.743-1.443-1.743a1.721,1.721,0,0,0-1.593,1.743Z" transform="translate(-727.351 -112.127)" fill="#fff"/>
  </g>
</svg>
