<svg xmlns="http://www.w3.org/2000/svg" width="15.22" height="12.499" viewBox="0 0 15.22 12.499">
  <path id="twitter" d="M.35,13.367a8.927,8.927,0,0,0,4.8,1.381,8.765,8.765,0,0,0,8.892-8.912,3.64,3.64,0,0,0,1.314-2.464.481.481,0,0,0-.724-.415,1.988,1.988,0,0,1-1.617.271,3.433,3.433,0,0,0-4.066-.547,3.3,3.3,0,0,0-1.8,3.1A7.965,7.965,0,0,1,1.982,2.955a.481.481,0,0,0-.786.064A3.349,3.349,0,0,0,1.12,6.327a.5.5,0,0,0-.418.5A3.39,3.39,0,0,0,1.883,9.385a.48.48,0,0,0-.123.5,3.45,3.45,0,0,0,1.953,2.092,5.6,5.6,0,0,1-3.045.509.481.481,0,0,0-.317.882Z" transform="translate(-0.131 -2.249)" fill="#f7941f"/>
</svg>
