<svg xmlns="http://www.w3.org/2000/svg" width="52.418" height="46.306" viewBox="0 0 52.418 46.306">
  <g id="wallet" transform="translate(-0.999 -7.293)">
    <path id="Path_13282" data-name="Path 13282" d="M5.873,35.19c-1.1,0-2-1.193-2-2.659s.9-2.659,2-2.659H47.945v5.319Z" transform="translate(-1.692 -13.269)" fill="#896561"/>
    <path id="Path_13283" data-name="Path 13283" d="M45.09,27.213H4.757a3.756,3.756,0,1,0,0,7.512H44.989a1.263,1.263,0,0,0,1.263-1.263V28.377a1.164,1.164,0,0,0-1.163-1.164Z" transform="translate(-0.001 -11.707)" fill="#896561"/>
    <path id="Path_13284" data-name="Path 13284" d="M46.252,33.829a.9.9,0,0,1-.894.893H4.759A3.761,3.761,0,0,1,1,30.969c0-.076,0-.147,0-.219a3.764,3.764,0,0,1,3.754-3.54h40.6a.893.893,0,0,1,.88,1.046.926.926,0,0,1-.93.742H4.759A1.974,1.974,0,0,0,2.8,30.752a1.862,1.862,0,0,0,0,.412,2.029,2.029,0,0,0,2.047,1.773H45.358a.9.9,0,0,1,.894.892Z" transform="translate(-0.001 -11.705)" fill="#967169"/>
    <rect id="Rectangle_6562" data-name="Rectangle 6562" width="35.324" height="20.09" rx="2.712" transform="matrix(0.818, -0.576, 0.576, 0.818, 12.95, 27.979)" fill="#86be7a"/>
    <path id="Path_13285" data-name="Path 13285" d="M46.056,46l-6.932-9.851a2.235,2.235,0,0,0,.541-3.113l22.309-15.7a2.234,2.234,0,0,0,3.113.541l6.932,9.851a2.235,2.235,0,0,0-.541,3.114l-22.309,15.7A2.235,2.235,0,0,0,46.056,46Z" transform="translate(-22.405 -5.9)" fill="#a0ca8b"/>
    <ellipse id="Ellipse_24" data-name="Ellipse 24" cx="4.307" cy="5.179" rx="4.307" ry="5.179" transform="translate(26.661 24.295) rotate(-35.105)" fill="#6fc682"/>
    <path id="Path_13286" data-name="Path 13286" d="M55.715,62.873a1.717,1.717,0,1,0,2.391.416,1.717,1.717,0,0,0-2.391-.416Z" transform="translate(-31.727 -32.48)" fill="#6fc682"/>
    <path id="Path_13287" data-name="Path 13287" d="M75.314,48.228a1.154,1.154,0,1,1,.28-1.611.261.261,0,1,0,.427-.3,1.679,1.679,0,0,0-2.112-.538l-.17-.242a.261.261,0,0,0-.427.3l.17.242a1.677,1.677,0,0,0,2.131,2.577,1.154,1.154,0,1,1-.28,1.611.261.261,0,0,0-.427.3,1.68,1.68,0,0,0,2.112.538l.173.245a.261.261,0,0,0,.427-.3l-.173-.245a1.677,1.677,0,0,0-2.131-2.577Z" transform="translate(-42.297 -22.41)" fill="#8ae0a1"/>
    <rect id="Rectangle_6563" data-name="Rectangle 6563" width="35.324" height="20.09" rx="2.712" transform="matrix(0.818, -0.576, 0.576, 0.818, 4.759, 27.639)" fill="#86be7a"/>
    <path id="Path_13288" data-name="Path 13288" d="M26.193,45.163l-6.932-9.851A2.235,2.235,0,0,0,19.8,32.2L42.112,16.5a2.234,2.234,0,0,0,3.113.541l6.932,9.849A2.236,2.236,0,0,0,51.616,30L29.307,45.7A2.234,2.234,0,0,0,26.193,45.163Z" transform="translate(-10.732 -5.411)" fill="#a0ca8b"/>
    <ellipse id="Ellipse_25" data-name="Ellipse 25" cx="4.307" cy="5.179" rx="4.307" ry="5.179" transform="translate(18.47 23.947) rotate(-35.105)" fill="#86be7a"/>
    <path id="Path_13289" data-name="Path 13289" d="M75.578,34.086a1.717,1.717,0,1,0,2.391.416A1.717,1.717,0,0,0,75.578,34.086Z" transform="translate(-43.399 -15.562)" fill="#86be7a"/>
    <path id="Path_13290" data-name="Path 13290" d="M35.852,62.04a1.718,1.718,0,1,0,2.391.416A1.718,1.718,0,0,0,35.852,62.04Z" transform="translate(-20.053 -31.99)" fill="#6fc682"/>
    <path id="Path_13291" data-name="Path 13291" d="M55.449,47.4a1.154,1.154,0,1,1,.28-1.611.261.261,0,1,0,.427-.3,1.679,1.679,0,0,0-2.111-.538l-.17-.241a.261.261,0,1,0-.427.3l.17.241a1.677,1.677,0,0,0,2.131,2.577,1.154,1.154,0,1,1-.28,1.611.261.261,0,0,0-.427.3,1.679,1.679,0,0,0,2.112.538l.172.245a.261.261,0,0,0,.427-.3l-.172-.245a1.677,1.677,0,0,0-2.131-2.577Z" transform="translate(-30.623 -21.921)" fill="#8ae0a1"/>
    <path id="Path_13292" data-name="Path 13292" d="M45.357,37.985H4.843a2.091,2.091,0,0,1-1.8-1.026c-.017.01-.041.014-.057.023a1.147,1.147,0,0,1-.734.242,1.121,1.121,0,0,1-1.192-.781A1.415,1.415,0,0,1,1,36.015V66.057a4.3,4.3,0,0,0,4.295,4.295h39.24a1.717,1.717,0,0,0,1.716-1.716V38.878A.9.9,0,0,0,45.357,37.985Z" transform="translate(0 -16.753)" fill="#a67f74"/>
    <g id="Group_17644" data-name="Group 17644" transform="translate(1.352 24.125)">
      <path id="Path_13293" data-name="Path 13293" d="M3.18,49.419a.412.412,0,0,1-.156-.031,4.475,4.475,0,0,1-1.01-.536.412.412,0,0,1,.509-.649,3.994,3.994,0,0,0,.814.422.412.412,0,0,1-.157.794Z" transform="translate(-1.856 -48.115)" fill="#896561"/>
      <path id="Path_13294" data-name="Path 13294" d="M21.978,51.828a.412.412,0,1,1,0-.825l2.1,0a.412.412,0,1,1,0,.825Zm-2.1,0c-.727,0-1.43,0-2.1-.006a.412.412,0,1,1,0-.825c.672,0,1.374,0,2.1.006a.412.412,0,1,1,0,.825Zm6.306-.008a.412.412,0,1,1,0-.825l2.1-.008a.412.412,0,0,1,0,.825l-2.1.008Zm-10.51-.012h0c-.766-.006-1.472-.014-2.1-.024a.412.412,0,0,1-.406-.419.419.419,0,0,1,.419-.406c.631.01,1.335.018,2.1.024a.412.412,0,1,1,0,.825ZM30.388,51.8a.412.412,0,0,1,0-.825l2.1-.012a.412.412,0,0,1,0,.825Zm4.206-.024a.412.412,0,1,1,0-.825l2.1-.014h0a.412.412,0,0,1,0,.825l-2.1.014Zm4.206-.03a.412.412,0,1,1,0-.825l2.1-.016h0a.412.412,0,0,1,0,.825l-2.1.016ZM11.47,51.735h-.016c-.565-.021-.946-.045-1.164-.073-.34-.045-.671-.1-.986-.159a.412.412,0,0,1,.157-.809c.3.058.613.108.936.15.19.025.556.047,1.089.067a.412.412,0,0,1-.015.825ZM43,51.714a.412.412,0,1,1,0-.825l2.1-.019h0a.412.412,0,0,1,0,.825l-2.1.019Z" transform="translate(-6.043 -49.627)" fill="#896561"/>
      <path id="Path_13295" data-name="Path 13295" d="M102.092,52.912a.412.412,0,0,1-.412-.412v-.614l-.613.007a.412.412,0,0,1-.008-.825l1.031-.011a.418.418,0,0,1,.294.119.412.412,0,0,1,.124.293V52.5a.412.412,0,0,1-.415.412Z" transform="translate(-59.915 -49.844)" fill="#896561"/>
      <path id="Path_13296" data-name="Path 13296" d="M103.559,78.313a.412.412,0,0,1-.412-.412V75.806a.412.412,0,1,1,.825,0V77.9A.412.412,0,0,1,103.559,78.313Zm0-4.189a.412.412,0,0,1-.412-.412V71.617a.412.412,0,1,1,.825,0v2.1a.412.412,0,0,1-.412.412Zm0-4.189a.412.412,0,0,1-.412-.412V67.428a.412.412,0,0,1,.825,0v2.095A.412.412,0,0,1,103.559,69.935Zm0-4.19a.412.412,0,0,1-.412-.412V63.24a.412.412,0,1,1,.825,0v2.095A.412.412,0,0,1,103.559,65.745Zm0-4.189a.412.412,0,0,1-.412-.412V59.049a.412.412,0,0,1,.825,0v2.095A.412.412,0,0,1,103.559,61.556Z" transform="translate(-61.383 -54.299)" fill="#896561"/>
      <path id="Path_13297" data-name="Path 13297" d="M102.09,111.293h-1.031a.412.412,0,1,1,0-.825h.618v-.618a.412.412,0,1,1,.825,0v1.031A.412.412,0,0,1,102.09,111.293Z" transform="translate(-59.914 -84.153)" fill="#896561"/>
      <path id="Path_13298" data-name="Path 13298" d="M44.772,111.691H42.654a.412.412,0,1,1,0-.825h2.118a.412.412,0,1,1,0,.825Zm-4.237,0H38.417a.412.412,0,1,1,0-.825h2.118a.412.412,0,1,1,0,.825Zm-4.237,0H34.18a.412.412,0,1,1,0-.825H36.3a.412.412,0,1,1,0,.825Zm-4.237,0H29.943a.412.412,0,1,1,0-.825h2.118a.412.412,0,1,1,0,.825Zm-4.237,0H25.705a.412.412,0,1,1,0-.825h2.117a.412.412,0,1,1,0,.825Zm-4.237,0H21.468a.412.412,0,1,1,0-.825h2.118a.412.412,0,1,1,0,.825Zm-4.237,0H17.231a.412.412,0,1,1,0-.825h2.118a.412.412,0,1,1,0,.825Zm-4.237,0H12.994a.412.412,0,1,1,0-.825h2.118a.412.412,0,1,1,0,.825Zm-4.234-.065a.407.407,0,0,1-.063,0,6.025,6.025,0,0,1-2.137-.738.412.412,0,1,1,.416-.712,5.222,5.222,0,0,0,1.847.635.412.412,0,0,1-.062.82Z" transform="translate(-5.745 -84.551)" fill="#896561"/>
      <path id="Path_13299" data-name="Path 13299" d="M4.47,106.166a.412.412,0,0,1-.342-.182A5.645,5.645,0,0,1,3.6,105a.412.412,0,0,1,.761-.317,4.818,4.818,0,0,0,.449.837.412.412,0,0,1-.342.643Z" transform="translate(-2.863 -81.211)" fill="#896561"/>
    </g>
    <path id="Path_13300" data-name="Path 13300" d="M68.462,72.994a3.886,3.886,0,1,0,0,7.771H83.612V72.994Z" transform="translate(-37.363 -38.611)" fill="#967169"/>
    <circle id="Ellipse_26" data-name="Ellipse 26" cx="1.876" cy="1.876" r="1.876" transform="translate(29.415 36.392)" fill="#2f3a5a"/>
    <path id="Path_13301" data-name="Path 13301" d="M45.358,38.933H4.842a2.051,2.051,0,0,1-1.979-1.447L1,37.412a3.981,3.981,0,0,0,1.1,2.207,3.742,3.742,0,0,0,2.655,1.1h40.6a.894.894,0,1,0,0-1.788Z" transform="translate(-0.001 -17.7)" fill="#967169"/>
  </g>
</svg>
